<?xml version="1.0" encoding="utf-8"?>

<!-- Uploaded to: SVG Repo, www.svgrepo.com, Generator: SVG Repo Mixer Tools -->
<svg fill="#000000" height="800px" width="800px" version="1.1" id="Icons" xmlns="http://www.w3.org/2000/svg" xmlns:xlink="http://www.w3.org/1999/xlink" 
	 viewBox="0 0 32 32" xml:space="preserve">
<path d="M14.2,26H12v-3h2.1c0.5-5,4.8-9,9.9-9c3.3,0,6.2,1.6,8,4V5c0-0.6-0.4-1-1-1H1C0.4,4,0,4.4,0,5v22c0,0.6,0.4,1,1,1h13.8
	C14.6,27.4,14.3,26.7,14.2,26z M27,6h3v3h-3V6z M22,6h3v3h-3V6z M17,6h3v3h-3V6z M12,6h3v3h-3V6z M5,26H2v-3h3V26z M5,9H2V6h3V9z
	 M10,26H7v-3h3V26z M10,9H7V6h3V9z"/>
<g>
	<path d="M18.3,18.3c-3.1,3.1-3.1,8.2,0,11.3s8.2,3.1,11.3,0s3.1-8.2,0-11.3S21.5,15.2,18.3,18.3z M26.8,22.6L25.4,24l1.4,1.4
		c0.4,0.4,0.4,1,0,1.4c-0.4,0.4-1,0.4-1.4,0L24,25.4l-1.4,1.4c-0.4,0.4-1,0.4-1.4,0c-0.4-0.4-0.4-1,0-1.4l1.4-1.4l-1.4-1.4
		c-0.4-0.4-0.4-1,0-1.4c0.4-0.4,1-0.4,1.4,0l1.4,1.4l1.4-1.4c0.4-0.4,1-0.4,1.4,0C27.2,21.6,27.2,22.2,26.8,22.6z"/>
</g>
</svg>